<svg width="111" height="111" viewBox="0 0 111 111" fill="none" xmlns="http://www.w3.org/2000/svg">
<path d="M109.551 103.472C101.492 88.9822 89.0718 78.5925 74.5775 73.6673C81.747 69.2289 87.3173 62.4658 90.4329 54.4167C93.5485 46.3675 94.0371 37.4773 91.8238 29.1114C89.6105 20.7454 84.8176 13.3663 78.1811 8.10729C71.5446 2.84823 63.4316 0 55.0878 0C46.7441 0 38.631 2.84823 31.9946 8.10729C25.3581 13.3663 20.5652 20.7454 18.3518 29.1114C16.1385 37.4773 16.6272 46.3675 19.7428 54.4167C22.8584 62.4658 28.4286 69.2289 35.5981 73.6673C21.1039 78.587 8.68404 88.9767 0.624625 103.472C0.329072 103.973 0.133034 104.53 0.048077 105.112C-0.0368799 105.693 -0.00903453 106.286 0.12997 106.856C0.268975 107.426 0.516323 107.961 0.857421 108.43C1.19852 108.898 1.62646 109.291 2.11599 109.585C2.60552 109.879 3.14672 110.069 3.70767 110.142C4.26862 110.215 4.83795 110.17 5.38207 110.011C5.92619 109.851 6.43407 109.58 6.87576 109.213C7.31745 108.846 7.684 108.391 7.95377 107.874C17.9235 89.9563 35.5452 79.2584 55.0878 79.2584C74.6305 79.2584 92.2521 89.9563 102.222 107.874C102.492 108.391 102.858 108.846 103.3 109.213C103.742 109.58 104.249 109.851 104.794 110.011C105.338 110.17 105.907 110.215 106.468 110.142C107.029 110.069 107.57 109.879 108.06 109.585C108.549 109.291 108.977 108.898 109.318 108.43C109.659 107.961 109.907 107.426 110.046 106.856C110.185 106.286 110.213 105.693 110.128 105.112C110.043 104.53 109.847 103.973 109.551 103.472ZM25.4538 39.6367C25.4538 33.5417 27.1918 27.5835 30.448 22.5157C33.7042 17.4479 38.3324 13.498 43.7474 11.1656C49.1623 8.83313 55.1207 8.22286 60.8692 9.41193C66.6176 10.601 71.8979 13.536 76.0423 17.8459C80.1867 22.1557 83.0091 27.6467 84.1525 33.6246C85.2959 39.6025 84.7091 45.7987 82.4662 51.4298C80.2232 57.0608 76.4249 61.8738 71.5516 65.26C66.6783 68.6462 60.9489 70.4536 55.0878 70.4536C47.231 70.4448 39.6983 67.1953 34.1427 61.4179C28.587 55.6405 25.4622 47.8071 25.4538 39.6367Z" fill="white"/>
</svg>
